<svg width="27" height="32" viewBox="0 0 27 32" fill="none" xmlns="http://www.w3.org/2000/svg">
<path d="M26.8125 11.2734C26.8646 11.638 26.7734 11.8203 26.5391 11.8203C26.3047 11.8203 26.0833 11.8594 25.875 11.9375C25.8229 11.8594 25.7578 11.8203 25.6797 11.8203C25.6016 11.8203 25.5234 11.8333 25.4453 11.8594C25.3672 11.8594 25.2891 11.8594 25.2109 11.8594C25.1328 11.8594 25.0807 11.8073 25.0547 11.7031C24.612 11.8333 24.2474 11.9375 23.9609 12.0156C23.7005 12.0677 23.401 12.2109 23.0625 12.4453C22.8281 12.6797 22.6719 12.7708 22.5938 12.7188C22.4896 13.0052 22.3984 13.1745 22.3203 13.2266C22.2422 13.2786 22.125 13.3307 21.9688 13.3828C21.7865 13.6953 21.6042 14.0208 21.4219 14.3594C21.2656 14.6719 21.0312 14.9062 20.7188 15.0625C20.5625 15.5573 20.3672 16 20.1328 16.3906C19.8984 16.7552 19.6771 17.1719 19.4688 17.6406C19.3385 17.9531 19.1953 18.2266 19.0391 18.4609C18.9089 18.6953 18.7786 18.9036 18.6484 19.0859C18.6745 19.4245 18.6094 19.7109 18.4531 19.9453C18.3229 20.1536 18.2578 20.4141 18.2578 20.7266C18.1276 20.7786 18.0365 20.8698 17.9844 21C17.9323 21.1042 17.8932 21.2214 17.8672 21.3516C18.0755 21.7682 18.2969 22.1458 18.5312 22.4844C18.7917 22.8229 18.987 23.2266 19.1172 23.6953C19.4818 24.1641 19.7943 24.6458 20.0547 25.1406C20.3411 25.6354 20.6406 26.1432 20.9531 26.6641C21.1354 26.612 21.2656 26.612 21.3438 26.6641C21.4479 26.7161 21.6042 26.7422 21.8125 26.7422C21.7344 27.1068 21.6432 27.3021 21.5391 27.3281C21.4609 27.3281 21.4219 27.3932 21.4219 27.5234C21.4219 27.6536 21.474 27.7578 21.5781 27.8359C21.7083 27.888 21.8516 27.9401 22.0078 27.9922C22.1901 28.0182 22.3464 28.0573 22.4766 28.1094C22.6328 28.1615 22.724 28.2526 22.75 28.3828C23.0365 28.4349 23.2578 28.4349 23.4141 28.3828C23.5703 28.3047 23.7526 28.2266 23.9609 28.1484C24.013 28.0182 24.0521 27.901 24.0781 27.7969C24.1042 27.6667 24.1953 27.6016 24.3516 27.6016C24.4818 27.3672 24.5859 27.1198 24.6641 26.8594C24.7682 26.5729 24.8984 26.3255 25.0547 26.1172C25.0026 25.8568 24.9375 25.5833 24.8594 25.2969C24.8073 24.9844 24.7552 24.6719 24.7031 24.3594C24.651 24.0469 24.625 23.7474 24.625 23.4609C24.625 23.1484 24.6771 22.849 24.7812 22.5625C24.7031 22.3542 24.7031 22.25 24.7812 22.25C24.8594 22.224 24.9375 22.1979 25.0156 22.1719C25.0417 21.9115 25.0417 21.7812 25.0156 21.7812C24.9896 21.7812 24.9896 21.7552 25.0156 21.7031C25.0677 21.4427 25.1849 21.2995 25.3672 21.2734C25.5495 21.2214 25.7318 21.2604 25.9141 21.3906C26.0964 21.4948 26.2266 21.651 26.3047 21.8594C26.4089 22.0677 26.3958 22.276 26.2656 22.4844C26.2917 23.6302 26.2266 24.5547 26.0703 25.2578C25.9141 25.9609 25.7057 26.7422 25.4453 27.6016C25.263 27.888 25.1068 28.1875 24.9766 28.5C24.8464 28.8125 24.6901 29.112 24.5078 29.3984C24.3516 29.6589 24.1562 29.8932 23.9219 30.1016C23.6875 30.3099 23.388 30.4661 23.0234 30.5703C22.763 30.6745 22.5547 30.7656 22.3984 30.8438C22.2422 30.9219 22.0729 31.013 21.8906 31.1172C21.6302 30.987 21.5 30.9479 21.5 31C21.526 31.0781 21.487 31.1042 21.3828 31.0781C21.0182 31.026 20.6276 30.9479 20.2109 30.8438C19.7943 30.7396 19.4036 30.5833 19.0391 30.375C18.7786 29.9323 18.4271 29.6719 17.9844 29.5938C17.9844 29.4896 17.9453 29.4115 17.8672 29.3594C17.7891 29.2812 17.6979 29.2161 17.5938 29.1641C17.5156 29.0859 17.4375 29.0078 17.3594 28.9297C17.2812 28.8255 17.2422 28.7083 17.2422 28.5781C17.0599 28.3177 16.8516 28.1094 16.6172 27.9531C16.4089 27.7708 16.3047 27.5755 16.3047 27.3672C16.2005 27.3932 16.1224 27.3672 16.0703 27.2891C16.0182 27.1849 15.9661 27.0807 15.9141 26.9766C15.888 26.8724 15.849 26.7682 15.7969 26.6641C15.7448 26.5599 15.6667 26.5078 15.5625 26.5078C15.6146 26.3776 15.5885 26.2734 15.4844 26.1953C15.3802 26.0911 15.263 26.013 15.1328 25.9609C14.9766 26.1693 14.9115 26.2865 14.9375 26.3125C14.9635 26.3385 14.9635 26.3906 14.9375 26.4688C14.625 26.8073 14.3906 27.0807 14.2344 27.2891C14.1042 27.4974 13.974 27.7188 13.8438 27.9531C13.6354 28.0052 13.4922 28.1354 13.4141 28.3438C13.3359 28.5521 13.1797 28.6693 12.9453 28.6953C12.6589 28.7995 12.4766 28.9818 12.3984 29.2422C12.3203 29.5026 12.1771 29.7109 11.9688 29.8672C11.8906 29.9453 11.7734 29.9974 11.6172 30.0234C11.487 30.0495 11.3828 30.1276 11.3047 30.2578C11.0964 30.4661 10.9271 30.6615 10.7969 30.8438C10.6667 31 10.4193 31.026 10.0547 30.9219C9.89844 30.974 9.74219 31.026 9.58594 31.0781C9.42969 31.1302 9.27344 31.1302 9.11719 31.0781C8.96094 31.1042 8.81771 31.1562 8.6875 31.2344C8.55729 31.3385 8.46615 31.3125 8.41406 31.1562C8.25781 31.2865 8.07552 31.3516 7.86719 31.3516C7.6849 31.3516 7.51562 31.3646 7.35938 31.3906C7.25521 31.2865 7.125 31.2344 6.96875 31.2344C6.8125 31.2604 6.64323 31.2734 6.46094 31.2734C6.30469 31.2995 6.14844 31.2995 5.99219 31.2734C5.83594 31.2474 5.70573 31.1562 5.60156 31C5.39323 31.026 5.19792 30.974 5.01562 30.8438C4.83333 30.7135 4.61198 30.6224 4.35156 30.5703C4.29948 30.4922 4.23438 30.401 4.15625 30.2969C4.10417 30.1667 4.01302 30.1016 3.88281 30.1016C3.7526 29.9193 3.67448 29.8411 3.64844 29.8672C3.6224 29.8932 3.57031 29.8802 3.49219 29.8281C3.17969 29.6979 2.97135 29.6068 2.86719 29.5547C2.78906 29.4766 2.6849 29.4115 2.55469 29.3594C2.55469 29.125 2.48958 28.9297 2.35938 28.7734C2.22917 28.6172 2.09896 28.513 1.96875 28.4609C1.91667 28.2526 1.79948 28.0964 1.61719 27.9922C1.4349 27.862 1.31771 27.7188 1.26562 27.5625C1.34375 27.4583 1.35677 27.3411 1.30469 27.2109C1.27865 27.0807 1.23958 26.9375 1.1875 26.7812C0.953125 26.8333 0.809896 26.8984 0.757812 26.9766C0.705729 27.0547 0.627604 27.0677 0.523438 27.0156C0.471354 26.8594 0.497396 26.7292 0.601562 26.625C0.705729 26.4948 0.770833 26.3906 0.796875 26.3125C0.744792 26.2344 0.705729 26.1562 0.679688 26.0781C0.679688 26 0.653646 25.8958 0.601562 25.7656C0.289062 25.4531 0.223958 25.1536 0.40625 24.8672C0.276042 24.5547 0.210938 24.2031 0.210938 23.8125C0.210938 23.4219 0.223958 23.0443 0.25 22.6797C0.25 22.3411 0.354167 22.0807 0.5625 21.8984C0.536458 21.1432 0.640625 20.4401 0.875 19.7891C1.10938 19.138 1.35677 18.487 1.61719 17.8359C1.79948 17.6276 1.89062 17.4583 1.89062 17.3281C2.17708 16.8333 2.42448 16.3776 2.63281 15.9609C2.86719 15.5182 3.17969 15.1536 3.57031 14.8672C3.54427 14.737 3.57031 14.6589 3.64844 14.6328C3.72656 14.6068 3.76562 14.5547 3.76562 14.4766C4.05208 14.2161 4.22135 14.0339 4.27344 13.9297C4.32552 13.7995 4.45573 13.7474 4.66406 13.7734C4.95052 13.2526 5.35417 12.862 5.875 12.6016C6.42188 12.3411 6.95573 12.0417 7.47656 11.7031C7.39844 11.4167 7.34635 11.2344 7.32031 11.1562C7.29427 11.0781 7.34635 11.026 7.47656 11C7.39844 10.974 7.35938 10.8698 7.35938 10.6875C7.35938 10.5052 7.41146 10.375 7.51562 10.2969C7.25521 9.82812 7.07292 9.30729 6.96875 8.73438C6.89062 8.16146 6.83854 7.65365 6.8125 7.21094C6.86458 7.08073 6.90365 6.88542 6.92969 6.625C6.95573 6.36458 6.91667 6.20833 6.8125 6.15625C6.94271 5.97396 6.99479 5.77865 6.96875 5.57031C6.96875 5.36198 6.99479 5.15365 7.04688 4.94531C7.09896 4.63281 7.21615 4.34635 7.39844 4.08594C7.60677 3.82552 7.69792 3.55208 7.67188 3.26562C7.90625 2.90104 8.11458 2.58854 8.29688 2.32812C8.47917 2.04167 8.72656 1.83333 9.03906 1.70312C9.22135 1.59896 9.29948 1.45573 9.27344 1.27344C9.3776 1.29948 9.50781 1.27344 9.66406 1.19531C9.84635 1.11719 9.96354 1.14323 10.0156 1.27344C10.224 1.14323 10.4583 1.05208 10.7188 1C10.9792 0.921875 11.2135 0.934896 11.4219 1.03906C11.5781 0.960938 11.7344 0.934896 11.8906 0.960938C12.0729 0.960938 12.2422 0.986979 12.3984 1.03906C12.5547 1.0651 12.7109 1.10417 12.8672 1.15625C13.0495 1.20833 13.2188 1.22135 13.375 1.19531C13.6094 1.27344 13.7917 1.35156 13.9219 1.42969C14.0521 1.50781 14.1693 1.59896 14.2734 1.70312C14.3776 1.80729 14.4818 1.92448 14.5859 2.05469C14.6901 2.15885 14.8073 2.25 14.9375 2.32812C15.0677 2.43229 15.237 2.54948 15.4453 2.67969C15.6536 2.78385 15.7448 2.97917 15.7188 3.26562C15.875 3.60417 15.9401 3.77344 15.9141 3.77344C15.9661 3.92969 16.0833 4.03385 16.2656 4.08594C16.4219 4.63281 16.474 5.15365 16.4219 5.64844C16.3698 6.14323 16.2526 6.61198 16.0703 7.05469C15.9141 7.47135 15.7188 7.875 15.4844 8.26562C15.25 8.65625 15.0156 9.03385 14.7812 9.39844C14.651 9.3724 14.5599 9.39844 14.5078 9.47656C14.4818 9.52865 14.4167 9.56771 14.3125 9.59375C14.1823 9.80208 14.013 9.97135 13.8047 10.1016C13.5964 10.2318 13.375 10.349 13.1406 10.4531C12.9323 10.5573 12.7109 10.6745 12.4766 10.8047C12.2422 10.9089 12.0469 11.0391 11.8906 11.1953C11.9688 11.2474 12.0339 11.3255 12.0859 11.4297C12.1641 11.5078 12.138 11.599 12.0078 11.7031C12.1641 11.9115 12.3073 12.1198 12.4375 12.3281C12.5677 12.5104 12.776 12.6146 13.0625 12.6406C13.0625 12.7448 13.0365 12.8229 12.9844 12.875C12.9323 12.9271 12.8802 12.9792 12.8281 13.0312C12.8802 13.2396 12.9714 13.4089 13.1016 13.5391C13.2578 13.6693 13.4141 13.7604 13.5703 13.8125C13.8828 13.8385 14.0391 13.8906 14.0391 13.9688C14.0391 14.0469 14.013 14.125 13.9609 14.2031C13.9349 14.2812 13.8958 14.3594 13.8438 14.4375C13.7917 14.4896 13.7526 14.5547 13.7266 14.6328C13.987 14.8672 14.1953 15.1797 14.3516 15.5703C14.5078 15.9349 14.7292 16.2344 15.0156 16.4688C15.1198 16.3646 15.25 16.3516 15.4062 16.4297C15.5625 16.5078 15.6927 16.5729 15.7969 16.625C15.6927 16.9635 15.6276 17.237 15.6016 17.4453C15.8099 17.8099 15.9922 18.1875 16.1484 18.5781C16.3307 18.9688 16.6042 19.2812 16.9688 19.5156C17.1771 19.6458 17.4375 19.6849 17.75 19.6328C17.8542 19.4766 17.9323 19.3073 17.9844 19.125C18.0625 18.9167 18.1276 18.7214 18.1797 18.5391C18.2578 18.3307 18.3359 18.1484 18.4141 17.9922C18.5182 17.8099 18.6615 17.6667 18.8438 17.5625C18.8177 17.4062 18.8438 17.263 18.9219 17.1328C19 16.9766 19.0781 16.8333 19.1562 16.7031C19.2604 16.5469 19.3385 16.3906 19.3906 16.2344C19.4688 16.0781 19.4818 15.9219 19.4297 15.7656C19.638 15.6354 19.7682 15.4401 19.8203 15.1797C19.8724 14.8932 19.9505 14.6458 20.0547 14.4375C20.1068 14.3594 20.1068 14.2292 20.0547 14.0469C20.0286 13.8646 20.0807 13.7604 20.2109 13.7344C20.0807 13.4479 19.9635 13.1615 19.8594 12.875C19.7552 12.5885 19.612 12.3411 19.4297 12.1328C19.2995 12.1328 19.1562 12.1328 19 12.1328C18.8698 12.1328 18.7786 12.0677 18.7266 11.9375C18.5182 11.9115 18.3099 11.8854 18.1016 11.8594C17.9193 11.8333 17.724 11.8203 17.5156 11.8203C17.3333 11.8203 17.138 11.8073 16.9297 11.7812C16.7474 11.7552 16.5781 11.6641 16.4219 11.5078C16.2656 11.612 16.1094 11.651 15.9531 11.625C15.7969 11.5729 15.6406 11.5208 15.4844 11.4688C15.6406 11.4167 15.6797 11.2604 15.6016 11C15.9661 10.8438 16.3438 10.8177 16.7344 10.9219C17.151 11.026 17.5807 11.0911 18.0234 11.1172C18.1536 11.1432 18.2578 11.1432 18.3359 11.1172C18.4401 11.0651 18.5443 11.0391 18.6484 11.0391C18.8568 11.0391 19.0651 11.0651 19.2734 11.1172C19.5078 11.1693 19.7552 11.1953 20.0156 11.1953C20.4062 11.1432 20.7969 11.1172 21.1875 11.1172C21.6042 11.1172 22.0078 11.0911 22.3984 11.0391C22.4505 11.0911 22.5677 11.1302 22.75 11.1562C22.9323 11.1562 23.1536 11.1302 23.4141 11.0781C23.6224 11.0521 23.8177 11.026 24 11C24.2083 10.974 24.4167 10.9609 24.625 10.9609C24.7552 10.9609 24.8724 10.974 24.9766 11C25.1068 11 25.237 10.974 25.3672 10.9219C25.7318 10.9219 26.0312 10.9609 26.2656 11.0391C26.5 11.0911 26.6823 11.1693 26.8125 11.2734ZM22.0469 12.0156C21.7083 11.8854 21.4219 11.8854 21.1875 12.0156C20.9531 12.1458 20.7969 12.3542 20.7188 12.6406C20.849 12.6406 20.9401 12.6146 20.9922 12.5625C21.0443 12.5104 21.1224 12.5234 21.2266 12.6016C21.4609 12.2891 21.7344 12.0938 22.0469 12.0156ZM10.2109 1.89844C10.1589 1.89844 10.0807 1.89844 9.97656 1.89844C9.89844 1.89844 9.83333 1.9375 9.78125 2.01562C9.83333 1.96354 9.89844 1.95052 9.97656 1.97656C10.0807 1.97656 10.1589 1.95052 10.2109 1.89844ZM15.25 6.39062C15.5365 6.07812 15.6016 5.70052 15.4453 5.25781C15.3151 4.8151 15.224 4.45052 15.1719 4.16406C14.8854 3.95573 14.638 3.72135 14.4297 3.46094C14.2214 3.20052 14.013 2.92708 13.8047 2.64062C13.7005 2.58854 13.6094 2.53646 13.5312 2.48438C13.4792 2.40625 13.4271 2.39323 13.375 2.44531C13.0625 2.6276 12.8411 2.61458 12.7109 2.40625C12.6068 2.14583 12.4375 2.0026 12.2031 1.97656C11.9688 1.95052 11.7214 1.96354 11.4609 2.01562C10.9922 2.04167 10.6016 2.1849 10.2891 2.44531C9.97656 2.70573 9.71615 3.03125 9.50781 3.42188C9.45573 3.68229 9.48177 3.8125 9.58594 3.8125C9.71615 3.78646 9.80729 3.86458 9.85938 4.04688C9.80729 4.17708 9.72917 4.26823 9.625 4.32031C9.54688 4.34635 9.48177 4.39844 9.42969 4.47656C9.50781 4.58073 9.52083 4.69792 9.46875 4.82812C9.44271 4.95833 9.45573 5.11458 9.50781 5.29688C9.5599 5.32292 9.61198 5.34896 9.66406 5.375C9.74219 5.40104 9.83333 5.41406 9.9375 5.41406C10.0938 5.49219 10.1719 5.57031 10.1719 5.64844C10.1719 5.70052 10.1719 5.7526 10.1719 5.80469C9.88542 5.9349 9.79427 6.11719 9.89844 6.35156C10.0286 6.58594 10.1068 6.80729 10.1328 7.01562C10.3932 6.85938 10.5495 6.75521 10.6016 6.70312C10.6536 6.625 10.7578 6.59896 10.9141 6.625C10.8099 6.80729 10.7708 6.9375 10.7969 7.01562C10.8229 7.06771 10.7839 7.06771 10.6797 7.01562C10.5755 7.14583 10.4844 7.27604 10.4062 7.40625C10.3542 7.51042 10.3281 7.61458 10.3281 7.71875C10.3281 7.82292 10.3672 7.91406 10.4453 7.99219C10.5234 8.04427 10.6536 8.01823 10.8359 7.91406C10.9401 8.04427 11.0182 8.13542 11.0703 8.1875C11.1224 8.23958 11.1224 8.33073 11.0703 8.46094C10.8359 8.72135 10.7188 8.94271 10.7188 9.125C10.7448 9.28125 10.8229 9.39844 10.9531 9.47656C11.3177 9.32031 11.6042 9.22917 11.8125 9.20312C12.0208 9.15104 12.1901 9.0599 12.3203 8.92969C12.3203 9.1901 12.2812 9.33333 12.2031 9.35938C12.125 9.35938 12.0729 9.41146 12.0469 9.51562C12.2031 9.54167 12.3073 9.51562 12.3594 9.4375C12.4375 9.33333 12.5417 9.30729 12.6719 9.35938C12.6979 9.25521 12.75 9.17708 12.8281 9.125C12.9062 9.07292 12.9714 9.00781 13.0234 8.92969C13.1536 8.92969 13.2318 8.89062 13.2578 8.8125C13.3099 8.73438 13.401 8.70833 13.5312 8.73438C13.8177 8.34375 14.1432 7.99219 14.5078 7.67969C14.8724 7.36719 15.1198 6.9375 15.25 6.39062ZM9.50781 2.40625C9.32552 2.35417 9.14323 2.35417 8.96094 2.40625C8.80469 2.45833 8.71354 2.6276 8.6875 2.91406C8.94792 2.86198 9.11719 2.82292 9.19531 2.79688C9.29948 2.74479 9.32552 2.65365 9.27344 2.52344L9.50781 2.40625ZM9.85938 8.1875C9.54688 8.21354 9.35156 8.22656 9.27344 8.22656C9.19531 8.20052 9.10417 8.21354 9 8.26562C9.28646 8.03125 9.41667 7.86198 9.39062 7.75781C9.36458 7.65365 9.40365 7.57552 9.50781 7.52344C9.45573 7.52344 9.3776 7.51042 9.27344 7.48438C9.19531 7.43229 9.13021 7.43229 9.07812 7.48438C9.18229 7.35417 9.23438 7.23698 9.23438 7.13281C9.26042 7.02865 9.28646 6.91146 9.3125 6.78125C9 6.75521 8.81771 6.6901 8.76562 6.58594C8.76562 6.42969 8.70052 6.3125 8.57031 6.23438C8.4401 6.13021 8.4401 6.01302 8.57031 5.88281C8.7526 5.72656 8.83073 5.53125 8.80469 5.29688C8.70052 5.29688 8.63542 5.27083 8.60938 5.21875C8.58333 5.16667 8.57031 5.10156 8.57031 5.02344C8.57031 4.91927 8.57031 4.82812 8.57031 4.75C8.59635 4.67188 8.60938 4.60677 8.60938 4.55469C8.42708 4.32031 8.32292 4.13802 8.29688 4.00781C8.29688 3.85156 8.36198 3.77344 8.49219 3.77344C8.57031 3.72135 8.59635 3.65625 8.57031 3.57812C8.57031 3.47396 8.55729 3.38281 8.53125 3.30469C8.14062 3.61719 7.89323 4.03385 7.78906 4.55469C7.6849 5.04948 7.59375 5.55729 7.51562 6.07812C7.48958 6.39062 7.48958 6.70312 7.51562 7.01562C7.56771 7.32812 7.58073 7.6276 7.55469 7.91406C7.6849 8.04427 7.88021 8.08333 8.14062 8.03125C8.42708 7.97917 8.59635 7.875 8.64844 7.71875C8.7526 7.82292 8.79167 7.92708 8.76562 8.03125C8.76562 8.10938 8.80469 8.16146 8.88281 8.1875C8.72656 8.29167 8.6224 8.33073 8.57031 8.30469C8.51823 8.27865 8.45312 8.26562 8.375 8.26562C8.58333 8.34375 8.71354 8.44792 8.76562 8.57812C8.6875 8.57812 8.60938 8.59115 8.53125 8.61719C8.47917 8.64323 8.38802 8.65625 8.25781 8.65625C8.10156 8.91667 7.9974 9.0599 7.94531 9.08594C7.91927 9.11198 7.89323 9.08594 7.86719 9.00781C7.94531 9.11198 8.03646 9.1901 8.14062 9.24219C8.27083 9.29427 8.36198 9.30729 8.41406 9.28125C8.4401 9.22917 8.51823 9.21615 8.64844 9.24219C8.80469 9.26823 8.92188 9.32031 9 9.39844C9.07812 9.63281 9.14323 9.69792 9.19531 9.59375C9.2474 9.48958 9.33854 9.45052 9.46875 9.47656C9.20833 9.29427 9.02604 9.1901 8.92188 9.16406C8.84375 9.11198 8.76562 9.0599 8.6875 9.00781C8.84375 8.95573 9 8.89062 9.15625 8.8125C9.3125 8.73438 9.46875 8.66927 9.625 8.61719C9.57292 8.59115 9.53385 8.52604 9.50781 8.42188C9.50781 8.31771 9.54688 8.23958 9.625 8.1875H9.85938ZM25.6797 22.4453C25.4714 22.6797 25.3672 23.0052 25.3672 23.4219C25.3672 23.8125 25.4062 24.1771 25.4844 24.5156C25.5885 24.4635 25.6536 24.3724 25.6797 24.2422C25.7057 24.0859 25.6797 23.9557 25.6016 23.8516C25.7318 23.7214 25.7708 23.5391 25.7188 23.3047C25.6927 23.0443 25.6536 22.849 25.6016 22.7188L25.6797 22.4453ZM11.5391 12.8359C11.5391 12.7057 11.5391 12.5885 11.5391 12.4844C11.5651 12.3542 11.513 12.263 11.3828 12.2109C11.2526 12.263 11.1615 12.3542 11.1094 12.4844C11.0573 12.6146 10.9401 12.6536 10.7578 12.6016C10.7318 12.8099 10.6797 12.9531 10.6016 13.0312C10.5234 13.1094 10.4193 13.1745 10.2891 13.2266C10.3672 13.2786 10.4583 13.2656 10.5625 13.1875C10.6667 13.1094 10.7969 13.0964 10.9531 13.1484C11.1615 12.9401 11.2656 12.8359 11.2656 12.8359C11.2917 12.8099 11.3828 12.8099 11.5391 12.8359ZM11.1484 11.8984C11.0182 11.8724 10.901 11.7812 10.7969 11.625C10.6927 11.3906 10.6536 11.2604 10.6797 11.2344C10.7318 11.1823 10.7578 11.1302 10.7578 11.0781C10.6536 11.0521 10.5625 11.0651 10.4844 11.1172C10.4062 11.1432 10.3151 11.1172 10.2109 11.0391C10.3151 10.9089 10.3932 10.7917 10.4453 10.6875C10.4974 10.5573 10.4583 10.4271 10.3281 10.2969C10.25 10.2708 10.1589 10.2708 10.0547 10.2969C9.95052 10.2969 9.79427 10.2839 9.58594 10.2578C9.66406 10.1797 9.78125 10.1536 9.9375 10.1797C10.0938 10.2057 10.1849 10.1536 10.2109 10.0234C10.0807 10.0234 10.0417 9.95833 10.0938 9.82812C10.1458 9.67188 10.1328 9.55469 10.0547 9.47656C9.97656 9.3724 9.84635 9.38542 9.66406 9.51562C9.48177 9.61979 9.32552 9.72396 9.19531 9.82812C9.0651 9.77604 8.94792 9.72396 8.84375 9.67188C8.76562 9.59375 8.67448 9.52865 8.57031 9.47656C8.36198 9.71094 8.21875 9.85417 8.14062 9.90625C8.0625 9.93229 7.9974 9.97135 7.94531 10.0234C7.91927 10.2839 7.98438 10.4141 8.14062 10.4141C8.32292 10.4141 8.45312 10.4531 8.53125 10.5312C8.53125 10.6615 8.49219 10.7656 8.41406 10.8438C8.36198 10.8958 8.38802 10.974 8.49219 11.0781C8.72656 11.0521 8.85677 10.987 8.88281 10.8828C8.90885 10.7526 8.98698 10.7396 9.11719 10.8438C8.9349 10.8438 8.86979 10.9089 8.92188 11.0391C8.97396 11.1693 8.92188 11.2604 8.76562 11.3125C8.89583 11.4948 8.90885 11.651 8.80469 11.7812C8.70052 11.8854 8.6875 12.0156 8.76562 12.1719C8.89583 12.0938 8.94792 12.0286 8.92188 11.9766C8.92188 11.8984 8.90885 11.8203 8.88281 11.7422C9.01302 11.8464 9.07812 11.9505 9.07812 12.0547C9.10417 12.1589 9.09115 12.276 9.03906 12.4062C9.16927 12.4583 9.2474 12.4583 9.27344 12.4062C9.32552 12.3542 9.35156 12.276 9.35156 12.1719C9.35156 12.0677 9.33854 11.9635 9.3125 11.8594C9.3125 11.7552 9.33854 11.6641 9.39062 11.5859C9.44271 11.4818 9.54688 11.3906 9.70312 11.3125C9.88542 11.2344 9.98958 11.1432 10.0156 11.0391C10.0417 11.2734 10.0286 11.4167 9.97656 11.4688C9.92448 11.5208 9.85938 11.5729 9.78125 11.625C9.72917 11.6771 9.66406 11.7422 9.58594 11.8203C9.53385 11.8724 9.49479 11.9505 9.46875 12.0547C9.625 12.0807 9.74219 12.0938 9.82031 12.0938C9.89844 12.0677 9.97656 12.0677 10.0547 12.0938C10.0807 12.0156 10.0938 11.9375 10.0938 11.8594C10.1198 11.7552 10.1979 11.7161 10.3281 11.7422C10.1198 12.0807 9.9375 12.3151 9.78125 12.4453C9.65104 12.5755 9.49479 12.6146 9.3125 12.5625C9.3125 12.6667 9.2474 12.7448 9.11719 12.7969C9.01302 12.849 8.90885 12.901 8.80469 12.9531C8.85677 13.1615 8.94792 13.3177 9.07812 13.4219C9.20833 13.526 9.35156 13.6172 9.50781 13.6953C9.61198 13.4349 9.6901 13.2786 9.74219 13.2266C9.82031 13.1484 9.96354 13.1224 10.1719 13.1484C10.3281 12.888 10.4193 12.7188 10.4453 12.6406C10.4714 12.5625 10.5104 12.4974 10.5625 12.4453C10.6667 12.4974 10.7448 12.4714 10.7969 12.3672C10.875 12.237 10.9792 12.1979 11.1094 12.25L11.1484 11.8984ZM13.1406 15.1016C12.8281 15.0755 12.6589 15.1146 12.6328 15.2188C12.6328 15.2969 12.6068 15.362 12.5547 15.4141C12.5286 15.4141 12.5938 15.4401 12.75 15.4922C12.9062 15.5443 13.0234 15.5182 13.1016 15.4141L13.1406 15.1016ZM12.5938 14.125C12.4635 14.0208 12.3984 13.8906 12.3984 13.7344C12.3203 13.6302 12.1771 13.5781 11.9688 13.5781C11.9427 13.6042 11.8646 13.6432 11.7344 13.6953C11.6302 13.7474 11.5651 13.7083 11.5391 13.5781C11.6172 13.2917 11.5911 13.1615 11.4609 13.1875C11.3307 13.2135 11.1875 13.2786 11.0312 13.3828C10.901 13.487 10.7578 13.6042 10.6016 13.7344C10.4714 13.8385 10.3411 13.8776 10.2109 13.8516C10.0026 14.138 9.85938 14.3073 9.78125 14.3594C9.70312 14.3854 9.63802 14.4245 9.58594 14.4766C9.63802 14.6068 9.70312 14.724 9.78125 14.8281C9.85938 14.9062 10.0026 14.9323 10.2109 14.9062C10.263 14.8281 10.3021 14.763 10.3281 14.7109C10.3542 14.6328 10.4323 14.5807 10.5625 14.5547C10.6406 14.7109 10.6276 14.8281 10.5234 14.9062C10.4453 14.9583 10.4193 15.0104 10.4453 15.0625C10.5755 15.0365 10.7188 14.9844 10.875 14.9062C11.0312 14.8281 11.1484 14.8542 11.2266 14.9844C11.2266 14.8542 11.2786 14.7891 11.3828 14.7891C11.513 14.7891 11.5651 14.724 11.5391 14.5938C11.8516 14.5156 12.0078 14.4375 12.0078 14.3594C12.0078 14.2812 12.0469 14.2292 12.125 14.2031C12.2552 14.3594 12.3464 14.3984 12.3984 14.3203C12.4505 14.2422 12.5156 14.1771 12.5938 14.125ZM12.75 14.75C12.6198 14.6198 12.5547 14.5417 12.5547 14.5156C12.5547 14.4635 12.5156 14.4115 12.4375 14.3594C12.4375 14.5417 12.3594 14.6328 12.2031 14.6328C12.0729 14.6328 11.9948 14.7109 11.9688 14.8672C11.6562 14.763 11.3958 14.8281 11.1875 15.0625C11.0052 15.2708 10.8359 15.4271 10.6797 15.5312C10.4714 15.5573 10.3932 15.6354 10.4453 15.7656C10.4974 15.8698 10.5495 15.974 10.6016 16.0781C10.8099 16.1562 10.9401 16.1823 10.9922 16.1562C11.0443 16.1302 11.0964 16.1302 11.1484 16.1562C11.2266 15.9479 11.2917 15.8307 11.3438 15.8047C11.3958 15.7526 11.4479 15.7135 11.5 15.6875C11.5781 15.6354 11.6172 15.5964 11.6172 15.5703C11.6432 15.5182 11.6172 15.4661 11.5391 15.4141C11.6693 15.4661 11.7604 15.4531 11.8125 15.375C11.8906 15.2708 11.9948 15.1927 12.125 15.1406C12.3594 15.0885 12.4766 15.0104 12.4766 14.9062C12.5026 14.776 12.5417 14.6849 12.5938 14.6328L12.75 14.75ZM14.625 18.7734C14.5208 18.5651 14.3776 18.4609 14.1953 18.4609C14.1953 18.5911 14.2474 18.6823 14.3516 18.7344C14.4818 18.7865 14.5729 18.7995 14.625 18.7734ZM14.4297 17.1328C14.3776 17.0286 14.3125 17.0156 14.2344 17.0938C14.1562 17.1458 14.0651 17.1719 13.9609 17.1719C13.8828 16.9635 13.8828 16.7812 13.9609 16.625C14.0651 16.4427 14.013 16.2995 13.8047 16.1953C13.4922 16.1953 13.2839 16.1562 13.1797 16.0781C13.0755 16 12.9583 15.987 12.8281 16.0391C12.5417 16.1693 12.2682 16.3125 12.0078 16.4688C11.7734 16.599 11.5521 16.7682 11.3438 16.9766C11.474 17.1589 11.526 17.3021 11.5 17.4062C11.5 17.4844 11.5521 17.5104 11.6562 17.4844C11.7604 17.4062 11.8516 17.3802 11.9297 17.4062C12.0339 17.4062 12.112 17.3542 12.1641 17.25C12.2943 16.8594 12.4766 16.638 12.7109 16.5859C12.8672 16.4818 13.0495 16.3646 13.2578 16.2344C13.1797 16.5208 13.1016 16.7161 13.0234 16.8203C12.9453 16.8984 12.8411 16.9375 12.7109 16.9375C12.6328 17.1719 12.4896 17.3281 12.2812 17.4062C12.0729 17.4844 11.9427 17.6536 11.8906 17.9141C12.125 17.9922 12.3464 18.0573 12.5547 18.1094C12.1641 18.5 12.0339 18.7474 12.1641 18.8516C12.3203 18.9557 12.4896 19.0078 12.6719 19.0078C12.9323 18.8516 13.0495 18.7474 13.0234 18.6953C12.9974 18.6432 13.0234 18.6042 13.1016 18.5781C13.3359 18.3438 13.4531 18.1224 13.4531 17.9141C13.6094 18.0182 13.7656 18.0964 13.9219 18.1484C14.0781 17.862 14.2344 17.6927 14.3906 17.6406C14.3646 17.4844 14.3516 17.3802 14.3516 17.3281C14.3776 17.25 14.4036 17.1849 14.4297 17.1328ZM15.7578 19.9453C15.7578 19.8411 15.7578 19.763 15.7578 19.7109C15.7839 19.6589 15.7839 19.5938 15.7578 19.5156C15.6276 19.5677 15.4844 19.6198 15.3281 19.6719C15.1979 19.6979 15.0938 19.6458 15.0156 19.5156C15.25 19.3333 15.4453 19.2161 15.6016 19.1641C15.6276 19.0339 15.5885 18.9427 15.4844 18.8906C15.4062 18.8385 15.4193 18.7474 15.5234 18.6172C15.3151 18.4349 15.1849 18.3828 15.1328 18.4609C15.1068 18.5391 15.0417 18.5911 14.9375 18.6172C15.0156 18.7995 14.9896 18.9297 14.8594 19.0078C14.7292 19.0859 14.612 19.1901 14.5078 19.3203C14.4036 19.0599 14.2995 18.9427 14.1953 18.9688C14.0911 18.9948 14.013 19.0078 13.9609 19.0078C14.1172 19.2682 14.1823 19.4115 14.1562 19.4375C14.1302 19.4635 14.0911 19.5026 14.0391 19.5547C13.8828 19.6849 13.7396 19.7891 13.6094 19.8672C13.4792 19.9453 13.388 20.0625 13.3359 20.2188C13.5703 20.4271 13.7135 20.5833 13.7656 20.6875C13.5833 20.8438 13.4792 20.9349 13.4531 20.9609C13.4531 20.9609 13.4401 21 13.4141 21.0781C13.5443 21.1562 13.6484 21.2083 13.7266 21.2344C13.8307 21.2344 13.9089 21.2083 13.9609 21.1562C14.0911 21.026 14.1823 20.9479 14.2344 20.9219C14.3125 20.8958 14.4167 20.8958 14.5469 20.9219C14.5208 20.7917 14.5469 20.7135 14.625 20.6875C14.7292 20.6354 14.8333 20.5833 14.9375 20.5312C15.0156 20.4271 15.0547 20.349 15.0547 20.2969C15.0807 20.2188 15.1198 20.1536 15.1719 20.1016C15.276 20.1797 15.3672 20.1797 15.4453 20.1016C15.5234 20.0234 15.6276 19.9714 15.7578 19.9453ZM16.6172 22.4453C16.3568 22.3932 16.2005 22.3542 16.1484 22.3281C16.0964 22.276 16.0833 22.2109 16.1094 22.1328C16.1354 22.3932 16.2396 22.5495 16.4219 22.6016L16.6172 22.4453ZM16.5391 20.7266C16.2266 20.6745 15.9922 20.7135 15.8359 20.8438C15.6797 20.9479 15.5104 20.974 15.3281 20.9219C15.3542 21.0781 15.3021 21.1693 15.1719 21.1953C15.0677 21.1953 14.9896 21.2474 14.9375 21.3516C14.8594 21.3255 14.7682 21.3125 14.6641 21.3125C14.5599 21.3125 14.4818 21.3516 14.4297 21.4297C14.3776 21.612 14.3125 21.7161 14.2344 21.7422C14.1562 21.7422 14.1693 21.8073 14.2734 21.9375C14.1432 22.25 14.1693 22.4062 14.3516 22.4062C14.5599 22.4062 14.7552 22.3672 14.9375 22.2891C15.0938 22.0286 15.1979 21.8724 15.25 21.8203C15.3281 21.7422 15.4062 21.7552 15.4844 21.8594C15.4323 21.7812 15.4453 21.6901 15.5234 21.5859C15.6016 21.4557 15.7057 21.4167 15.8359 21.4688C15.862 21.3125 15.9531 21.1953 16.1094 21.1172C16.2917 21.0391 16.4349 20.9089 16.5391 20.7266ZM13.5703 19.3984C13.2839 19.3464 13.1276 19.3464 13.1016 19.3984C13.0755 19.4505 13.0104 19.4635 12.9062 19.4375C12.8802 19.5417 12.8411 19.6198 12.7891 19.6719C12.763 19.724 12.737 19.8021 12.7109 19.9062C12.8151 19.9062 12.8802 19.9323 12.9062 19.9844C12.9583 20.0365 13.0234 20.0755 13.1016 20.1016C13.0495 19.9714 13.0625 19.8802 13.1406 19.8281C13.2188 19.776 13.2057 19.6849 13.1016 19.5547C13.2318 19.5547 13.3359 19.5547 13.4141 19.5547C13.5182 19.5547 13.5703 19.5026 13.5703 19.3984ZM23.5312 29.125C23.2188 29.0729 22.9323 29.151 22.6719 29.3594C22.4375 29.5417 22.2292 29.75 22.0469 29.9844C22.3854 29.9323 22.6589 29.8281 22.8672 29.6719C23.0755 29.4896 23.2969 29.3073 23.5312 29.125ZM19.3906 25.375C19.2865 25.349 19.1953 25.3229 19.1172 25.2969C19.0651 25.2708 19.0391 25.1927 19.0391 25.0625C18.9089 25.0365 18.8177 25.0755 18.7656 25.1797C18.7396 25.2578 18.6875 25.2318 18.6094 25.1016C18.4271 25.362 18.3229 25.5052 18.2969 25.5312C18.349 25.5312 18.4141 25.5052 18.4922 25.4531C18.5703 25.401 18.6354 25.362 18.6875 25.3359C18.7396 25.2839 18.7917 25.2708 18.8438 25.2969C18.8958 25.2969 18.9219 25.362 18.9219 25.4922C18.6615 25.6745 18.6094 25.8177 18.7656 25.9219C18.9479 25.974 19 26.013 18.9219 26.0391C18.8698 26.0651 18.8047 26.0911 18.7266 26.1172C18.6484 26.1172 18.5833 26.1302 18.5312 26.1562C18.4792 26.1823 18.4792 26.2344 18.5312 26.3125C18.7135 26.2604 18.8177 26.2474 18.8438 26.2734C18.8958 26.2734 18.9609 26.2734 19.0391 26.2734C19.0391 26.1432 19.0391 26.0391 19.0391 25.9609C19.0391 25.8828 19.0651 25.8177 19.1172 25.7656C19.3255 25.6615 19.4167 25.5312 19.3906 25.375ZM18.7266 24.2031C18.6224 24.151 18.5573 24.0729 18.5312 23.9688C18.5052 23.8385 18.4531 23.7214 18.375 23.6172C18.2448 23.6693 18.1276 23.6953 18.0234 23.6953C17.9453 23.6693 17.8411 23.6823 17.7109 23.7344C17.763 23.8385 17.763 23.9297 17.7109 24.0078C17.6589 24.0599 17.6589 24.138 17.7109 24.2422C17.6068 24.2682 17.5286 24.3203 17.4766 24.3984C17.4245 24.4766 17.3724 24.5417 17.3203 24.5938C17.1641 24.6719 17.0208 24.7109 16.8906 24.7109C16.7604 24.6849 16.6953 24.5807 16.6953 24.3984C16.9818 24.5547 17.099 24.5807 17.0469 24.4766C16.9948 24.3464 17.0339 24.2552 17.1641 24.2031C17.1641 23.9948 17.1771 23.8516 17.2031 23.7734C17.2292 23.6953 17.2031 23.6302 17.125 23.5781C17.2812 23.6302 17.4375 23.6693 17.5938 23.6953C17.75 23.513 17.8672 23.3958 17.9453 23.3438C18.0495 23.2917 18.1146 23.2266 18.1406 23.1484C17.9583 22.8359 17.75 22.5104 17.5156 22.1719C17.2812 21.8073 17.125 21.4948 17.0469 21.2344C17.0469 21.2865 16.9818 21.2995 16.8516 21.2734C16.7214 21.2474 16.6302 21.2344 16.5781 21.2344C16.3438 21.3385 16.2135 21.4297 16.1875 21.5078C16.1875 21.5599 16.1354 21.599 16.0312 21.625C15.7969 21.8594 15.6146 22.0026 15.4844 22.0547C15.3542 22.1068 15.263 22.1979 15.2109 22.3281C15.6016 22.1719 15.9271 22.0807 16.1875 22.0547C16.4479 22.0026 16.7344 22.0417 17.0469 22.1719C16.9688 22.224 16.9297 22.3151 16.9297 22.4453C16.9297 22.5495 16.8906 22.6276 16.8125 22.6797C16.6823 22.6276 16.5911 22.6406 16.5391 22.7188C16.487 22.7969 16.3958 22.7839 16.2656 22.6797C16.0833 22.9401 16.0052 23.0703 16.0312 23.0703C16.0573 23.0703 16.0573 23.0964 16.0312 23.1484C15.7708 23.2786 15.5885 23.3438 15.4844 23.3438C15.3802 23.3438 15.3021 23.3438 15.25 23.3438C15.4583 23.2396 15.6406 23.0443 15.7969 22.7578C15.5365 22.8359 15.3411 22.901 15.2109 22.9531C15.0807 22.9792 14.9896 23.0703 14.9375 23.2266C15.0938 23.4349 15.1719 23.5781 15.1719 23.6562C15.1719 23.7083 15.1458 23.7474 15.0938 23.7734C15.1719 23.7734 15.25 23.7865 15.3281 23.8125C15.4062 23.8125 15.4714 23.8516 15.5234 23.9297C15.6016 24.0339 15.6797 24.0339 15.7578 23.9297C15.862 23.8255 15.9792 23.7474 16.1094 23.6953C15.9531 23.9818 15.901 24.099 15.9531 24.0469C16.0312 23.9948 16.0833 24.0339 16.1094 24.1641C15.9792 24.138 15.875 24.151 15.7969 24.2031C15.7448 24.2552 15.6536 24.2552 15.5234 24.2031C15.4714 24.4635 15.4323 24.6849 15.4062 24.8672C15.3802 25.0495 15.4583 25.2057 15.6406 25.3359C15.875 25.3359 16.0443 25.3229 16.1484 25.2969C16.2526 25.2708 16.2917 25.1927 16.2656 25.0625C16.3438 24.8281 16.4349 24.724 16.5391 24.75C16.6693 24.75 16.7474 24.7891 16.7734 24.8672C16.9036 25.0234 17.0078 25.0885 17.0859 25.0625C17.1641 25.0104 17.2682 24.9583 17.3984 24.9062C17.3724 24.9844 17.3594 25.0755 17.3594 25.1797C17.3594 25.2839 17.3464 25.362 17.3203 25.4141C17.0339 25.3359 16.9167 25.362 16.9688 25.4922C17.0208 25.6224 17.0208 25.7266 16.9688 25.8047C16.9167 25.7005 16.8516 25.6615 16.7734 25.6875C16.6953 25.7135 16.6302 25.6745 16.5781 25.5703C16.526 25.7005 16.526 25.8828 16.5781 26.1172C16.5781 26.5078 16.6432 26.7031 16.7734 26.7031C16.9557 26.3906 17.1901 26.1432 17.4766 25.9609C17.7891 25.7526 18.0495 25.5312 18.2578 25.2969C18.1536 25.2188 18.0755 25.1536 18.0234 25.1016C17.9714 25.0495 17.9193 24.9974 17.8672 24.9453C18.1797 24.8151 18.401 24.7109 18.5312 24.6328C18.6615 24.5286 18.7266 24.3854 18.7266 24.2031ZM21.8516 29.3984C21.7734 29.3724 21.7214 29.3333 21.6953 29.2812C21.6693 29.2292 21.5911 29.1901 21.4609 29.1641C21.4609 29.3203 21.3958 29.4115 21.2656 29.4375C21.1615 29.4375 21.0703 29.4245 20.9922 29.3984C20.9922 29.138 20.9922 28.9948 20.9922 28.9688C20.9922 28.9427 21.0182 28.9427 21.0703 28.9688C20.8359 28.8646 20.7057 28.7214 20.6797 28.5391C20.8099 28.2526 20.862 28.0964 20.8359 28.0703C20.7057 28.0964 20.6016 28.0833 20.5234 28.0312C20.4714 27.9792 20.4193 27.9271 20.3672 27.875C20.3672 28.0052 20.3411 28.1484 20.2891 28.3047C20.237 28.4349 20.276 28.5651 20.4062 28.6953C20.4323 29.112 20.224 29.3333 19.7812 29.3594C19.8854 29.5938 19.8724 29.6849 19.7422 29.6328C19.612 29.5807 19.5469 29.6198 19.5469 29.75C19.6771 29.9062 19.8333 29.9974 20.0156 30.0234C20.1979 30.0234 20.3542 30.0885 20.4844 30.2188C20.5365 30.0885 20.5755 30.0104 20.6016 29.9844C20.6536 29.9323 20.6536 29.8411 20.6016 29.7109C20.8099 29.6068 20.9271 29.5677 20.9531 29.5938C20.9792 29.6198 21.0312 29.6198 21.1094 29.5938C21.2917 29.5677 21.3958 29.5547 21.4219 29.5547C21.474 29.5547 21.5651 29.5677 21.6953 29.5938L21.8516 29.3984ZM20.2109 28.0703C20.1068 28.0182 20.0156 27.9792 19.9375 27.9531C19.8854 27.9271 19.8594 27.849 19.8594 27.7188C19.9635 27.4844 20.0286 27.3542 20.0547 27.3281C20.0807 27.276 20.1198 27.263 20.1719 27.2891V26.5859C20.0677 26.5859 19.9896 26.5729 19.9375 26.5469C19.8854 26.5208 19.8073 26.5078 19.7031 26.5078C19.3906 26.4818 19.2344 26.5339 19.2344 26.6641C18.9479 27.0026 18.7266 27.2891 18.5703 27.5234C18.4141 27.7318 18.1927 27.8359 17.9062 27.8359C18.1146 28.0703 18.2318 28.1354 18.2578 28.0312C18.2839 27.901 18.349 27.8229 18.4531 27.7969L18.5312 28.3047C18.6094 28.9297 18.8958 29.3203 19.3906 29.4766C19.3125 29.3724 19.1953 29.2422 19.0391 29.0859C19.0911 28.9557 19.1432 28.8385 19.1953 28.7344C19.2734 28.6042 19.4036 28.5391 19.5859 28.5391C19.7682 28.3307 19.9115 28.2135 20.0156 28.1875C20.1198 28.1615 20.1849 28.1224 20.2109 28.0703ZM16.8516 25.5703C16.6172 25.388 16.4349 25.3099 16.3047 25.3359C16.1745 25.362 16.0833 25.4141 16.0312 25.4922C16.2917 25.5703 16.4609 25.5573 16.5391 25.4531L16.8516 25.5703ZM18.7266 26.9375C18.7005 26.8594 18.6745 26.7943 18.6484 26.7422C18.6484 26.6641 18.5833 26.612 18.4531 26.5859C18.1927 26.6901 18.0755 26.7943 18.1016 26.8984C18.1276 27.0026 18.1667 27.0807 18.2188 27.1328C18.1146 27.1849 18.0365 27.25 17.9844 27.3281C17.9583 27.3802 17.9193 27.4323 17.8672 27.4844C17.8672 27.3021 17.8932 27.2109 17.9453 27.2109C17.9974 27.1849 17.9974 27.1198 17.9453 27.0156C17.8151 27.0677 17.6849 27.1458 17.5547 27.25C17.4245 27.3281 17.3594 27.4714 17.3594 27.6797C17.724 27.7839 17.9062 27.7708 17.9062 27.6406C17.9062 27.5104 17.9844 27.4453 18.1406 27.4453C18.349 27.2109 18.4792 27.0807 18.5312 27.0547C18.6094 27.0286 18.6745 26.9896 18.7266 26.9375ZM14.5078 24.3203C14.2474 24.3724 14.0911 24.3464 14.0391 24.2422C14.0651 24.1641 14.1042 24.112 14.1562 24.0859C14.2083 24.0339 14.2344 23.9557 14.2344 23.8516C14.1302 23.7474 14.013 23.6562 13.8828 23.5781C13.7786 23.5 13.6875 23.3958 13.6094 23.2656C13.6094 23.1354 13.6354 23.0573 13.6875 23.0312C13.7396 22.9792 13.7656 22.9141 13.7656 22.8359C13.6094 22.6276 13.4401 22.4323 13.2578 22.25C13.0755 22.0417 12.9583 21.7812 12.9062 21.4688C12.724 21.3385 12.5807 21.2083 12.4766 21.0781C12.3724 20.9479 12.2682 20.7786 12.1641 20.5703C12.0599 20.388 11.9688 20.2188 11.8906 20.0625C11.8125 19.9062 11.7995 19.763 11.8516 19.6328C11.6172 19.4766 11.474 19.2552 11.4219 18.9688C11.3438 18.9427 11.2396 18.9036 11.1094 18.8516C11.0052 18.7995 10.9792 18.6693 11.0312 18.4609C10.9792 17.9141 10.7969 17.4974 10.4844 17.2109C10.1979 16.9245 10.0026 16.5599 9.89844 16.1172C9.66406 15.8307 9.44271 15.5703 9.23438 15.3359C9.02604 15.1016 8.88281 14.75 8.80469 14.2812C8.64844 14.125 8.51823 13.9297 8.41406 13.6953C8.3099 13.4349 8.19271 13.2005 8.0625 12.9922C7.93229 13.0182 7.82812 13.0182 7.75 12.9922C7.69792 12.9401 7.61979 12.9271 7.51562 12.9531C6.5 13.6823 5.64062 14.4896 4.9375 15.375C4.83333 15.5052 4.74219 15.6094 4.66406 15.6875C4.61198 15.7396 4.54688 15.7917 4.46875 15.8438C4.59896 15.9219 4.61198 16.0521 4.50781 16.2344C4.42969 16.4167 4.36458 16.5729 4.3125 16.7031C4.52083 17.0938 4.54688 17.3281 4.39062 17.4062C4.23438 17.4844 4.09115 17.5885 3.96094 17.7188C4.01302 17.849 4.01302 17.9531 3.96094 18.0312C3.90885 18.0833 3.85677 18.1354 3.80469 18.1875C3.9349 18.2917 3.97396 18.4089 3.92188 18.5391C3.86979 18.6693 3.86979 18.8385 3.92188 19.0469C4.18229 19.0208 4.36458 18.9427 4.46875 18.8125C4.59896 18.6562 4.80729 18.5781 5.09375 18.5781C5.01562 18.8646 4.8724 19.0599 4.66406 19.1641C4.48177 19.2422 4.3125 19.3464 4.15625 19.4766C4 19.5807 3.88281 19.724 3.80469 19.9062C3.7526 20.0625 3.80469 20.2578 3.96094 20.4922C4.03906 20.4401 4.15625 20.401 4.3125 20.375C4.46875 20.3229 4.5599 20.375 4.58594 20.5312C4.48177 20.6354 4.36458 20.7396 4.23438 20.8438C4.13021 20.9219 4.03906 21.026 3.96094 21.1562C4.03906 21.2865 4.0651 21.4167 4.03906 21.5469C4.03906 21.6771 4.0651 21.8203 4.11719 21.9766C4.11719 22.2891 4.19531 22.5495 4.35156 22.7578C4.53385 22.9401 4.71615 23.1354 4.89844 23.3438C4.8724 23.474 4.84635 23.5911 4.82031 23.6953C4.79427 23.7995 4.78125 23.9297 4.78125 24.0859C5.09375 24.2943 5.30208 24.3854 5.40625 24.3594C5.53646 24.3333 5.6276 24.3854 5.67969 24.5156C5.6276 24.5938 5.57552 24.6589 5.52344 24.7109C5.47135 24.763 5.44531 24.8542 5.44531 24.9844C5.73177 25.2188 5.91406 25.3099 5.99219 25.2578C6.07031 25.2057 6.17448 25.2318 6.30469 25.3359C6.33073 25.4922 6.27865 25.5964 6.14844 25.6484C6.04427 25.7005 6.01823 25.7917 6.07031 25.9219C6.1224 26.1302 6.22656 26.1953 6.38281 26.1172C6.53906 26.0391 6.66927 26.0651 6.77344 26.1953C6.69531 26.4557 6.69531 26.612 6.77344 26.6641C6.85156 26.6901 6.86458 26.7812 6.8125 26.9375C6.91667 26.9896 7.02083 26.9896 7.125 26.9375C7.25521 26.8854 7.35938 26.8333 7.4375 26.7812C7.51562 26.8333 7.55469 26.8984 7.55469 26.9766C7.58073 27.0547 7.61979 27.1328 7.67188 27.2109C7.64583 27.5755 7.73698 27.7448 7.94531 27.7188C8.17969 27.6927 8.40104 27.7057 8.60938 27.7578C8.79167 28.1484 8.97396 28.3828 9.15625 28.4609C9.36458 28.513 9.61198 28.513 9.89844 28.4609C10.3411 28.5651 10.6927 28.6042 10.9531 28.5781C11.2135 28.5521 11.513 28.513 11.8516 28.4609C12.138 28.2005 12.4245 27.9661 12.7109 27.7578C13.0234 27.5234 13.2839 27.25 13.4922 26.9375C13.6224 26.6771 13.7266 26.4948 13.8047 26.3906C13.9089 26.2604 14.026 26.1302 14.1562 26C14.1562 25.7917 14.1823 25.6484 14.2344 25.5703C14.2865 25.4661 14.3385 25.3099 14.3906 25.1016C14.2604 25.0755 14.1562 25.0104 14.0781 24.9062C14 24.8021 14.013 24.6849 14.1172 24.5547C14.2214 24.5026 14.2995 24.4635 14.3516 24.4375C14.4036 24.4115 14.4557 24.3724 14.5078 24.3203ZM3.53125 16.6641C3.375 16.8724 3.17969 17.0417 2.94531 17.1719C2.73698 17.276 2.59375 17.4583 2.51562 17.7188C2.77604 17.7708 3.02344 17.6667 3.25781 17.4062C3.49219 17.1198 3.58333 16.8724 3.53125 16.6641ZM3.33594 17.6797C2.9974 17.8099 2.67188 17.9531 2.35938 18.1094C2.07292 18.2396 1.94271 18.487 1.96875 18.8516C1.83854 18.9036 1.76042 18.9948 1.73438 19.125C1.70833 19.2552 1.69531 19.3854 1.69531 19.5156C1.98177 19.2292 2.28125 18.9688 2.59375 18.7344C2.90625 18.474 3.15365 18.1224 3.33594 17.6797ZM3.45312 18.6953C2.95833 18.8516 2.55469 19.0599 2.24219 19.3203C1.92969 19.5807 1.69531 19.9193 1.53906 20.3359C1.8776 20.1797 2.20312 20.0234 2.51562 19.8672C2.82812 19.7109 3.1276 19.5156 3.41406 19.2812C3.20573 19.2031 3.14062 19.0729 3.21875 18.8906L3.45312 18.6953ZM3.29688 20.6875C3.29688 20.5573 3.25781 20.4792 3.17969 20.4531C3.1276 20.4271 3.04948 20.4271 2.94531 20.4531C2.86719 20.4531 2.77604 20.4792 2.67188 20.5312C2.59375 20.5573 2.52865 20.5703 2.47656 20.5703C2.34635 20.8047 2.17708 21 1.96875 21.1562C1.76042 21.2865 1.55208 21.4167 1.34375 21.5469C1.60417 21.7031 1.8125 21.7161 1.96875 21.5859C2.15104 21.4297 2.34635 21.2865 2.55469 21.1562C2.73698 21.0521 2.89323 20.987 3.02344 20.9609C3.17969 20.9089 3.27083 20.8177 3.29688 20.6875ZM2.35938 20.2188C2.15104 20.2708 1.95573 20.375 1.77344 20.5312C1.61719 20.6615 1.42188 20.7266 1.1875 20.7266C1.1875 20.8047 1.17448 20.9089 1.14844 21.0391C1.1224 21.1432 1.1224 21.2214 1.14844 21.2734C1.4349 21.1432 1.65625 20.987 1.8125 20.8047C1.99479 20.6224 2.17708 20.4271 2.35938 20.2188ZM10.6406 29.5156C10.3542 29.6458 10.1068 29.6849 9.89844 29.6328C9.6901 29.5807 9.48177 29.4896 9.27344 29.3594C9.14323 29.4375 9.03906 29.5026 8.96094 29.5547C8.90885 29.5807 8.83073 29.6328 8.72656 29.7109C8.72656 29.8672 8.70052 29.9583 8.64844 29.9844C8.59635 30.0104 8.55729 30.0625 8.53125 30.1406C8.71354 30.0885 8.88281 30.0234 9.03906 29.9453C9.19531 29.8411 9.35156 29.75 9.50781 29.6719C9.66406 29.8542 9.66406 29.9974 9.50781 30.1016C9.58594 30.0755 9.76823 30.0495 10.0547 30.0234C10.3672 29.9974 10.5625 29.8281 10.6406 29.5156ZM3.41406 22.3672C3.46615 22.2109 3.50521 22.0807 3.53125 21.9766C3.55729 21.8464 3.51823 21.6901 3.41406 21.5078C3.28385 21.4818 3.19271 21.5078 3.14062 21.5859C3.08854 21.638 3.01042 21.6641 2.90625 21.6641C2.61979 21.9505 2.29427 22.1849 1.92969 22.3672C1.5651 22.5495 1.30469 22.849 1.14844 23.2656C1.51302 23.1875 1.79948 23.0573 2.00781 22.875C2.21615 22.6927 2.46354 22.6276 2.75 22.6797C2.61979 22.7318 2.47656 22.8099 2.32031 22.9141C2.16406 22.9922 2.02083 23.0312 1.89062 23.0312C1.94271 23.1354 1.90365 23.2266 1.77344 23.3047C1.66927 23.3568 1.53906 23.3828 1.38281 23.3828C1.33073 23.513 1.2526 23.6172 1.14844 23.6953C1.07031 23.7474 0.992188 23.8125 0.914062 23.8906C0.888021 24.0729 0.914062 24.2292 0.992188 24.3594C1.30469 24.2292 1.55208 24.0339 1.73438 23.7734C1.94271 23.487 2.22917 23.3047 2.59375 23.2266C2.59375 23.1224 2.61979 23.0443 2.67188 22.9922C2.75 22.9401 2.82812 22.901 2.90625 22.875C2.98438 22.8229 3.04948 22.7708 3.10156 22.7188C3.15365 22.6667 3.16667 22.6016 3.14062 22.5234L3.41406 22.3672ZM1.73438 22.1328C1.57812 22.2109 1.39583 22.2891 1.1875 22.3672C0.979167 22.4193 0.901042 22.5495 0.953125 22.7578C1.08333 22.6536 1.22656 22.5625 1.38281 22.4844C1.53906 22.4062 1.65625 22.2891 1.73438 22.1328ZM5.01562 26.5859C4.75521 26.5339 4.61198 26.651 4.58594 26.9375C4.6901 26.9115 4.78125 26.8854 4.85938 26.8594C4.96354 26.8073 5.01562 26.7161 5.01562 26.5859ZM5.05469 25.5312C4.89844 25.4792 4.83333 25.375 4.85938 25.2188C4.88542 25.0625 4.79427 24.9844 4.58594 24.9844C4.45573 25.4531 4.23438 25.7526 3.92188 25.8828C3.60938 25.987 3.33594 26.1432 3.10156 26.3516C3.3099 26.0651 3.53125 25.8438 3.76562 25.6875C4 25.5052 4.2474 25.3099 4.50781 25.1016C4.40365 24.8672 4.33854 24.776 4.3125 24.8281C4.28646 24.8802 4.26042 24.8542 4.23438 24.75C4.18229 24.4896 4.15625 24.3203 4.15625 24.2422C4.18229 24.1641 4.16927 24.125 4.11719 24.125C3.70052 24.3073 3.29688 24.5417 2.90625 24.8281C2.54167 25.0885 2.21615 25.349 1.92969 25.6094C2.34635 24.9323 2.89323 24.4245 3.57031 24.0859C3.49219 23.8776 3.51823 23.7604 3.64844 23.7344C3.80469 23.6823 3.90885 23.5781 3.96094 23.4219C3.88281 23.2917 3.84375 23.1745 3.84375 23.0703C3.86979 22.9661 3.85677 22.888 3.80469 22.8359C3.64844 22.8099 3.51823 22.8229 3.41406 22.875C3.3099 22.9271 3.20573 22.9922 3.10156 23.0703C3.02344 23.1484 2.93229 23.2266 2.82812 23.3047C2.75 23.3828 2.63281 23.4219 2.47656 23.4219C2.26823 23.6042 2.09896 23.7995 1.96875 24.0078C1.83854 24.2161 1.63021 24.3464 1.34375 24.3984C1.29167 24.5026 1.22656 24.6068 1.14844 24.7109C1.09635 24.8151 1.07031 24.9323 1.07031 25.0625C1.20052 25.0625 1.33073 25.0365 1.46094 24.9844C1.59115 24.9323 1.70833 24.8802 1.8125 24.8281C1.91667 24.75 2.00781 24.6979 2.08594 24.6719C2.16406 24.6198 2.24219 24.6198 2.32031 24.6719C2.11198 24.6719 1.98177 24.737 1.92969 24.8672C1.90365 24.9974 1.78646 25.0625 1.57812 25.0625C1.42188 25.2969 1.33073 25.4401 1.30469 25.4922C1.27865 25.5443 1.27865 25.6354 1.30469 25.7656C1.4349 25.7917 1.5 25.7656 1.5 25.6875C1.5 25.5833 1.5651 25.5443 1.69531 25.5703C1.64323 25.8307 1.59115 26 1.53906 26.0781C1.48698 26.1302 1.48698 26.2083 1.53906 26.3125C1.69531 26.3646 1.77344 26.4557 1.77344 26.5859C1.77344 26.6901 1.79948 26.8073 1.85156 26.9375C2.0599 26.9115 2.1901 26.9115 2.24219 26.9375C2.29427 26.9375 2.32031 26.9635 2.32031 27.0156C2.52865 27.276 2.6849 27.3151 2.78906 27.1328C2.91927 26.9245 3.11458 26.7812 3.375 26.7031C3.40104 26.9375 3.29688 27.0417 3.0625 27.0156C2.95833 27.1458 2.85417 27.276 2.75 27.4062C2.64583 27.5104 2.5026 27.6016 2.32031 27.6797C2.52865 27.8099 2.71094 27.8229 2.86719 27.7188C3.04948 27.5885 3.20573 27.4453 3.33594 27.2891C3.49219 27.1328 3.64844 26.9896 3.80469 26.8594C3.96094 26.7292 4.13021 26.651 4.3125 26.625C4.15625 26.3385 4.14323 26.1562 4.27344 26.0781C4.45573 26.026 4.61198 25.9609 4.74219 25.8828C4.89844 25.8047 5.0026 25.6875 5.05469 25.5312ZM8.6875 29.2812C8.55729 29.151 8.41406 29.138 8.25781 29.2422C8.1276 29.3203 8.02344 29.2812 7.94531 29.125C8.10156 29.151 8.17969 29.138 8.17969 29.0859C8.20573 29.0078 8.28385 28.9948 8.41406 29.0469C8.28385 28.9167 8.04948 28.7995 7.71094 28.6953C7.42448 28.9818 7.08594 29.2161 6.69531 29.3984C6.30469 29.5807 6.01823 29.8672 5.83594 30.2578C6.04427 30.2318 6.23958 30.1406 6.42188 29.9844C6.60417 29.8021 6.78646 29.763 6.96875 29.8672C6.91667 29.9714 6.82552 30.0495 6.69531 30.1016C6.5651 30.1276 6.46094 30.1667 6.38281 30.2188C6.46094 30.401 6.60417 30.4922 6.8125 30.4922C7.04688 30.4922 7.25521 30.5182 7.4375 30.5703C7.48958 30.4922 7.54167 30.388 7.59375 30.2578C7.64583 30.1276 7.73698 30.0885 7.86719 30.1406C7.91927 29.9323 8.03646 29.776 8.21875 29.6719C8.40104 29.5677 8.55729 29.4375 8.6875 29.2812ZM7.47656 28.3438C7.1901 28.3177 6.98177 28.3568 6.85156 28.4609C6.7474 28.5651 6.59115 28.5911 6.38281 28.5391C6.30469 28.6432 6.2526 28.7214 6.22656 28.7734C6.20052 28.8255 6.16146 28.8776 6.10938 28.9297C6.13542 28.5911 6.26562 28.3958 6.5 28.3438C6.76042 28.2917 6.92969 28.1615 7.00781 27.9531C6.95573 27.7969 6.89062 27.7448 6.8125 27.7969C6.73438 27.8229 6.65625 27.888 6.57812 27.9922C6.5 28.0703 6.40885 28.1484 6.30469 28.2266C6.20052 28.2786 6.09635 28.2526 5.99219 28.1484C5.86198 28.3047 5.71875 28.474 5.5625 28.6562C5.40625 28.8125 5.22396 28.9557 5.01562 29.0859C4.9375 29.112 4.84635 29.151 4.74219 29.2031C4.63802 29.2292 4.625 29.3073 4.70312 29.4375C4.91146 29.3594 5.09375 29.2422 5.25 29.0859C5.43229 28.9297 5.65365 28.8776 5.91406 28.9297C5.73177 29.138 5.60156 29.2552 5.52344 29.2812C5.44531 29.2812 5.38021 29.3073 5.32812 29.3594C5.32812 29.5677 5.23698 29.6849 5.05469 29.7109C4.89844 29.7109 4.79427 29.776 4.74219 29.9062C4.79427 30.0104 4.8724 30.0625 4.97656 30.0625C5.08073 30.0625 5.1849 30.0885 5.28906 30.1406C5.60156 29.9062 5.875 29.6849 6.10938 29.4766C6.36979 29.2422 6.70833 29.0599 7.125 28.9297C7.15104 28.7995 7.21615 28.7214 7.32031 28.6953C7.42448 28.6432 7.47656 28.526 7.47656 28.3438ZM6.30469 27.1328C6.01823 27.0286 5.86198 26.9896 5.83594 27.0156C5.8099 27.0417 5.77083 27.0417 5.71875 27.0156C5.66667 27.0938 5.57552 27.1979 5.44531 27.3281C5.34115 27.4323 5.23698 27.4583 5.13281 27.4062C5.08073 27.4583 5.02865 27.5234 4.97656 27.6016C4.92448 27.6536 4.83333 27.6927 4.70312 27.7188C4.72917 27.849 4.66406 27.9531 4.50781 28.0312C4.3776 28.1094 4.2474 28.1484 4.11719 28.1484C4.09115 28.2786 4.05208 28.3698 4 28.4219C3.94792 28.4479 3.86979 28.487 3.76562 28.5391C3.79167 28.7734 3.83073 28.8516 3.88281 28.7734C3.96094 28.6953 4.0651 28.6823 4.19531 28.7344C4.16927 28.5521 4.23438 28.4349 4.39062 28.3828C4.54688 28.3307 4.65104 28.3047 4.70312 28.3047C4.70312 28.3568 4.66406 28.4609 4.58594 28.6172C4.53385 28.7474 4.42969 28.7604 4.27344 28.6562C4.19531 28.8646 4.11719 28.9948 4.03906 29.0469C3.98698 29.099 3.9349 29.1771 3.88281 29.2812C4.01302 29.3594 4.10417 29.3464 4.15625 29.2422C4.20833 29.138 4.27344 29.0599 4.35156 29.0078C4.45573 28.9297 4.5599 28.8516 4.66406 28.7734C4.76823 28.6953 4.8724 28.6302 4.97656 28.5781C5.10677 28.5 5.21094 28.4219 5.28906 28.3438C5.39323 28.2656 5.44531 28.1484 5.44531 27.9922C5.41927 27.8359 5.52344 27.7057 5.75781 27.6016C5.99219 27.4974 6.17448 27.3411 6.30469 27.1328ZM4.46875 27.5234C4.26042 27.6016 4.11719 27.6536 4.03906 27.6797C3.98698 27.7057 3.90885 27.7448 3.80469 27.7969C3.83073 27.9271 3.72656 28.0312 3.49219 28.1094C3.28385 28.1875 3.11458 28.2396 2.98438 28.2656C2.93229 28.3958 2.93229 28.487 2.98438 28.5391C3.0625 28.5651 3.14062 28.6042 3.21875 28.6562C3.40104 28.4219 3.60938 28.2396 3.84375 28.1094C4.10417 27.9531 4.3125 27.7578 4.46875 27.5234ZM8.49219 6.19531C8.23177 6.2474 8.0625 6.23438 7.98438 6.15625C7.80208 6.33854 7.72396 6.45573 7.75 6.50781C7.77604 6.53385 7.76302 6.58594 7.71094 6.66406C7.84115 6.61198 7.94531 6.5599 8.02344 6.50781C8.10156 6.45573 8.23177 6.44271 8.41406 6.46875L8.49219 6.19531ZM9.74219 10.5312C9.42969 10.6615 9.27344 10.6745 9.27344 10.5703C9.42969 10.5964 9.58594 10.5833 9.74219 10.5312ZM11.3047 14.0859C11.0964 14.1901 10.9792 14.3073 10.9531 14.4375C10.9271 14.5677 10.8229 14.6068 10.6406 14.5547C10.5625 14.3464 10.6016 14.2161 10.7578 14.1641C10.9401 14.0859 11.1224 14.0599 11.3047 14.0859ZM13.1016 17.6406C12.8932 17.6406 12.724 17.6536 12.5938 17.6797C12.6719 17.6016 12.763 17.5495 12.8672 17.5234C12.9974 17.4974 13.0755 17.4193 13.1016 17.2891V17.6406ZM18.2969 23.7734C18.2969 23.8255 18.2188 23.8776 18.0625 23.9297C17.9323 23.9557 17.8672 23.9167 17.8672 23.8125C17.9453 23.7604 18.0104 23.7604 18.0625 23.8125C18.1146 23.8385 18.1927 23.8255 18.2969 23.7734ZM14.8594 20.1016C14.6771 20.1536 14.5078 20.1406 14.3516 20.0625C14.1953 19.9583 14.0781 19.9844 14 20.1406C13.9479 20.2448 13.9349 20.3359 13.9609 20.4141C13.987 20.4661 13.987 20.5182 13.9609 20.5703C13.9089 20.362 13.8958 20.2188 13.9219 20.1406C13.974 20.0365 14.1042 19.9453 14.3125 19.8672C14.4688 19.763 14.612 19.724 14.7422 19.75C14.8724 19.75 14.9115 19.8672 14.8594 20.1016ZM17.0859 23.5781C16.8776 23.6042 16.7083 23.6042 16.5781 23.5781C16.5781 23.7865 16.474 23.9167 16.2656 23.9688C16.3177 23.8906 16.3307 23.8255 16.3047 23.7734C16.3047 23.7214 16.3177 23.6432 16.3438 23.5391C16.4479 23.5911 16.5781 23.5651 16.7344 23.4609C16.9167 23.3568 17.0339 23.3958 17.0859 23.5781ZM19.7812 27.1328C19.8333 27.263 19.8073 27.3672 19.7031 27.4453C19.599 27.5234 19.5729 27.6406 19.625 27.7969C19.4948 27.7448 19.3906 27.7708 19.3125 27.875C19.2344 27.9531 19.1172 27.9661 18.9609 27.9141C18.987 27.7839 18.987 27.6927 18.9609 27.6406C18.9349 27.5885 18.9349 27.5365 18.9609 27.4844C19.1693 27.4583 19.2865 27.4714 19.3125 27.5234C19.3646 27.5495 19.4167 27.5755 19.4688 27.6016C19.5729 27.5495 19.612 27.4714 19.5859 27.3672C19.5599 27.237 19.5729 27.1458 19.625 27.0938L19.7812 27.1328ZM2.90625 26.3125C2.85417 26.4427 2.80208 26.5859 2.75 26.7422C2.69792 26.8724 2.56771 26.9375 2.35938 26.9375C2.38542 26.7031 2.46354 26.5339 2.59375 26.4297C2.72396 26.2995 2.82812 26.2604 2.90625 26.3125Z" fill="#5C162E"/>
</svg>
