<svg width="76" height="68" viewBox="0 0 76 68" fill="none" xmlns="http://www.w3.org/2000/svg">
<path d="M4.34 4.83L0 3.78V1.05C0.56 0.956668 1.28333 0.863335 2.17 0.770003C3.05667 0.630002 3.96667 0.513335 4.9 0.420003C5.83333 0.280002 6.65 0.186668 7.35 0.140002C8.05 0.0466675 8.47 0 8.61 0C8.75 0 9.00667 0.163334 9.38 0.490002C9.75333 0.816667 10.08 1.19 10.36 1.61C10.6867 1.98333 10.85 2.24 10.85 2.38V38.71L16.87 39.76L15.54 42.35C15.0733 42.3967 14.35 42.49 13.37 42.63C12.4367 42.77 11.48 42.8867 10.5 42.98C9.52 43.12 8.65667 43.2367 7.91 43.33C7.21 43.4233 6.81333 43.47 6.72 43.47C6.58 43.47 6.32333 43.3067 5.95 42.98C5.57667 42.6533 5.20333 42.3033 4.83 41.93C4.50333 41.5567 4.34 41.3 4.34 41.16V4.83ZM26.74 4.83L22.4 3.78V1.05C23.1467 0.910002 24.15 0.770001 25.41 0.63C26.7167 0.443333 27.93 0.303334 29.05 0.210001C30.17 0.0700005 30.8233 0 31.01 0C31.15 0 31.4067 0.163334 31.78 0.490002C32.1533 0.816667 32.48 1.19 32.76 1.61C33.0867 1.98333 33.25 2.24 33.25 2.38V38.64L37.59 39.69V42.42C37.03 42.5133 36.3067 42.63 35.42 42.77C34.5333 42.8633 33.6233 42.9567 32.69 43.05C31.7567 43.19 30.94 43.2833 30.24 43.33C29.54 43.4233 29.12 43.47 28.98 43.47C28.84 43.47 28.5833 43.2833 28.21 42.91C27.8367 42.5833 27.4867 42.2333 27.16 41.86C26.88 41.4867 26.74 41.23 26.74 41.09V4.83ZM15.05 19.46L28.49 18.9V23.31L15.05 22.75V19.46ZM16.59 0.63H18.34V35.77C18.34 36.05 18.2233 36.5633 17.99 37.31C17.7567 38.01 17.3833 38.8267 16.87 39.76H14.7V6.65C14.7 6.13667 14.8867 5.32 15.26 4.2C15.68 3.08 16.1233 1.89 16.59 0.63Z" fill="#D4BEA7"/>
<path d="M33.1376 5.39L28.7976 3.22L29.7076 0C30.5009 0.0466688 31.2942 0.0933363 32.0876 0.140002C32.8809 0.186668 33.6276 0.256668 34.3276 0.35C35.0276 0.396669 35.6342 0.466669 36.1476 0.560001C36.7076 0.653333 37.1276 0.746667 37.4076 0.840002C37.5476 0.886668 37.7809 1.07333 38.1076 1.4C38.4809 1.72667 38.8309 2.07667 39.1576 2.45C39.4842 2.82334 39.6476 3.08 39.6476 3.22V36.33C41.1409 36.7967 42.6109 37.1933 44.0576 37.52C45.5042 37.8467 46.9742 38.0567 48.4676 38.15L54.9776 37.52V39.41C54.2309 39.9233 53.3442 40.5067 52.3176 41.16C51.2909 41.8133 50.3576 42.3733 49.5176 42.84C48.7242 43.26 48.2342 43.47 48.0476 43.47C45.7609 43.3767 43.6376 43.1433 41.6776 42.77C39.7642 42.3967 37.9909 41.93 36.3576 41.37C36.1709 41.2767 35.7976 40.88 35.2376 40.18C34.7242 39.48 34.2342 38.7567 33.7676 38.01C33.3476 37.2167 33.1376 36.68 33.1376 36.4V5.39ZM54.2776 4.83L49.9376 3.78V1.05C50.6842 0.910002 51.6876 0.770001 52.9476 0.63C54.2542 0.443333 55.4676 0.303334 56.5876 0.210001C57.7076 0.0700005 58.3609 0 58.5476 0C58.6876 0 58.9442 0.163334 59.3176 0.490002C59.6909 0.816667 60.0176 1.19 60.2976 1.61C60.6242 1.98333 60.7876 2.24 60.7876 2.38V37.8L65.1276 39.97L64.2176 43.19C63.1909 43.0967 62.1409 43.0033 61.0676 42.91C60.0409 42.8633 59.1076 42.7933 58.2676 42.7C57.4742 42.56 56.8909 42.4433 56.5176 42.35C56.4242 42.3033 56.1909 42.0933 55.8176 41.72C55.4442 41.3467 55.0942 40.95 54.7676 40.53C54.4409 40.11 54.2776 39.8067 54.2776 39.62V4.83ZM45.3876 0.63H47.1376V34.23C47.1376 34.51 47.0209 35.0233 46.7876 35.77C46.5542 36.47 46.1809 37.2867 45.6676 38.22H43.4976V6.65C43.4976 6.13667 43.6842 5.32 44.0576 4.2C44.4776 3.08 44.9209 1.89 45.3876 0.63Z" fill="#D4BEA7"/>
<path d="M72.6648 0.35C73.1782 0.676668 73.6448 1.09667 74.0648 1.61C74.5315 2.07667 74.8815 2.56667 75.1148 3.08C75.0215 4.38667 74.9515 5.90334 74.9048 7.63C74.8582 9.31 74.8348 11.06 74.8348 12.88C74.8348 14.6533 74.8348 16.3333 74.8348 17.92C74.8348 19.4133 74.8348 20.9067 74.8348 22.4C74.8815 23.8933 74.9048 25.3867 74.9048 26.88C74.9515 28.3267 74.9982 29.7967 75.0448 31.29C75.0915 32.7833 75.1148 34.2767 75.1148 35.77C75.1148 36.05 74.9515 36.5633 74.6248 37.31C74.2982 38.01 73.8782 38.8267 73.3648 39.76H71.1948C71.4282 38.6867 71.5682 37.6133 71.6148 36.54C71.7082 35.4667 71.7548 34.37 71.7548 33.25C71.7548 31.7567 71.7082 30.2167 71.6148 28.63C71.5215 26.9967 71.4282 25.3167 71.3348 23.59C71.2415 21.8167 71.1948 19.95 71.1948 17.99C71.1948 16.73 71.1948 15.33 71.1948 13.79C71.2415 12.25 71.3348 10.7567 71.4748 9.31C71.6148 7.86333 71.8482 6.67333 72.1748 5.74L72.0348 5.32H63.2148L56.2148 3.78V1.05C58.8748 0.770001 61.3948 0.536667 63.7748 0.35C66.1548 0.163335 68.1615 0.0700033 69.7948 0.0700033C71.4282 0.0233344 72.3848 0.116667 72.6648 0.35ZM60.8348 3.43L67.3448 4.83V38.71L73.3648 39.76L72.0348 42.35C71.5682 42.3967 70.8448 42.49 69.8648 42.63C68.9315 42.77 67.9748 42.8867 66.9948 42.98C66.0148 43.12 65.1515 43.2367 64.4048 43.33C63.7048 43.4233 63.3082 43.47 63.2148 43.47C63.0748 43.47 62.8182 43.3067 62.4448 42.98C62.0715 42.6533 61.6982 42.3033 61.3248 41.93C60.9982 41.5567 60.8348 41.3 60.8348 41.16V3.43Z" fill="#D4BEA7"/>
<path d="M16.8 24.63H31.01L30.1 36.88H26.32L25.55 29.18L16.59 28.34L16.8 24.63ZM10.85 62.71L16.87 63.76L15.54 66.35C15.0733 66.3967 14.35 66.49 13.37 66.63C12.4367 66.77 11.48 66.8867 10.5 66.98C9.52 67.12 8.65667 67.2367 7.91 67.33C7.21 67.4233 6.81333 67.47 6.72 67.47C6.58 67.47 6.32333 67.3067 5.95 66.98C5.57667 66.6533 5.20333 66.3033 4.83 65.93C4.50333 65.5567 4.34 65.3 4.34 65.16V28.83L0 27.78V25.05C0.56 24.9567 1.28333 24.8633 2.17 24.77C3.05667 24.63 3.96667 24.5133 4.9 24.42C5.83333 24.28 6.65 24.1867 7.35 24.14C8.05 24.0467 8.47 24 8.61 24C8.75 24 9.00667 24.1633 9.38 24.49C9.75333 24.8167 10.08 25.19 10.36 25.61C10.6867 25.9833 10.85 26.24 10.85 26.38V62.71ZM15.05 44.79L25.83 44.23L25.27 49.41L15.05 48.5V44.79ZM16.59 24.63H18.34V59.77C18.34 60.05 18.2233 60.5633 17.99 61.31C17.7567 62.01 17.3833 62.8267 16.87 63.76H14.7V30.65C14.7 30.1367 14.8867 29.32 15.26 28.2C15.68 27.08 16.1233 25.89 16.59 24.63Z" fill="#D4BEA7"/>
<path d="M38.5697 43.39L45.4997 44.65C45.873 44.6967 46.223 44.58 46.5497 44.3C46.8764 43.9733 47.1564 43.4367 47.3897 42.69C47.6697 41.8967 47.8797 40.87 48.0197 39.61C48.2064 38.35 48.2997 36.81 48.2997 34.99C48.2997 32.0967 47.973 30.09 47.3197 28.97C46.6664 27.85 45.663 27.3833 44.3097 27.57L38.6397 28.27V24H43.8897C46.363 24 48.4397 24.35 50.1197 25.05C51.7997 25.7033 53.0597 26.8933 53.8997 28.62C54.7397 30.3 55.1597 32.7033 55.1597 35.83C55.1597 36.9967 55.0897 38.14 54.9497 39.26C54.8564 40.3333 54.623 41.1967 54.2497 41.85C54.0164 42.2233 53.5964 42.7133 52.9897 43.32C52.4297 43.88 51.753 44.4633 50.9597 45.07C50.1664 45.6767 49.3497 46.26 48.5097 46.82C47.6697 47.3333 46.8764 47.7533 46.1297 48.08C45.4297 48.4067 44.8464 48.57 44.3797 48.57C43.3997 48.57 42.4197 48.5467 41.4397 48.5C40.4597 48.4533 39.4797 48.4067 38.4997 48.36L38.5697 43.39ZM25.6197 28.83L21.2797 27.78V25.05C21.8397 24.9567 22.563 24.8633 23.4497 24.77C24.3364 24.63 25.2464 24.5133 26.1797 24.42C27.113 24.28 27.9297 24.1867 28.6297 24.14C29.3297 24.0467 29.7497 24 29.8897 24C30.0297 24 30.2864 24.1633 30.6597 24.49C31.033 24.8167 31.3597 25.19 31.6397 25.61C31.9664 25.9833 32.1297 26.24 32.1297 26.38V62.71L38.1497 63.76L36.8197 66.35C36.353 66.3967 35.6297 66.49 34.6497 66.63C33.7164 66.77 32.7597 66.8867 31.7797 66.98C30.7997 67.12 29.9364 67.2367 29.1897 67.33C28.4897 67.4233 28.093 67.47 27.9997 67.47C27.8597 67.47 27.603 67.3067 27.2297 66.98C26.8564 66.6533 26.483 66.3033 26.1097 65.93C25.783 65.5567 25.6197 65.3 25.6197 65.16V28.83ZM50.0497 65.72C49.303 64.0867 48.4164 62.1267 47.3897 59.84C46.4097 57.5533 45.4297 55.1967 44.4497 52.77C43.5164 50.2967 42.653 48.0567 41.8597 46.05H49.2097V47.1C49.9097 48.92 50.6797 50.7867 51.5197 52.7C52.4064 54.5667 53.293 56.3633 54.1797 58.09C55.0664 59.77 55.883 61.3333 56.6297 62.78L60.3397 63.9L59.8497 67.19C59.0097 67.2367 58.053 67.2367 56.9797 67.19C55.9064 67.1433 54.8564 67.05 53.8297 66.91C52.8497 66.8167 52.0097 66.6767 51.3097 66.49C50.6097 66.2567 50.1897 66 50.0497 65.72ZM37.8697 24H39.6197V59.77C39.6197 60.05 39.503 60.5633 39.2697 61.31C39.0364 62.01 38.663 62.8267 38.1497 63.76H35.9797V30.02C35.9797 29.5067 36.1664 28.69 36.5397 27.57C36.9597 26.45 37.403 25.26 37.8697 24Z" fill="#D4BEA7"/>
</svg>
